
<svg xmlns="http://www.w3.org/2000/svg" viewBox="0 0 512 512">
  <rect width="512" height="512" rx="120" fill="#f97316"/>
  <path fill="#ffffff" d="M392 344c0-57.4-46.6-104-104-104-5.2 0-10.3.4-15.3 1.1-15.2-34.5-49.8-57.1-88.7-57.1-53 0-96 42.1-96 94 0 7.7 1 15.2 2.8 22.3-30.8 11.4-52.8 41.2-52.8 75.7 0 44.2 35.8 80 80 80h192c44.2 0 80-35.8 80-80 0-11.3-2.3-22-6.5-31.7 5.5-2.2 10.7-4.8 15.6-7.8 7.3 2.1 14.4 3.5 21.7 3.5 44.2 0 80-35.8 80-80 0-24.8-11.3-46.9-29.1-61.6zm-216-16c-30.9 0-56 25.1-56 56s25.1 56 56 56 56-25.1 56-56-25.1-56-56-56z" opacity="0" />
  <!-- Toque de cuisinier minimaliste -->
  <path fill="#ffffff" d="M256 120c-55.2 0-100 44.8-100 100 0 11.2 1.8 22 5.2 32.1-32.2 13.4-55.2 45.1-55.2 81.9 0 48.6 39.4 88 88 88h124c48.6 0 88-39.4 88-88 0-36.8-23-68.5-55.2-81.9 3.4-10.1 5.2-20.9 5.2-32.1 0-55.2-44.8-100-100-100zM192 360h128v32H192v-32z"/>
</svg>
